<svg width="97" height="97" viewBox="0 0 97 97" fill="none" xmlns="http://www.w3.org/2000/svg">
<path d="M96.5 48.5C96.5 75.0097 75.0097 96.5 48.5 96.5C21.9903 96.5 0.5 75.0097 0.5 48.5C0.5 21.9903 21.9903 0.5 48.5 0.5C75.0097 0.5 96.5 21.9903 96.5 48.5Z" fill="white" stroke="#0276FE"/>
<mask id="mask0_1003_586" style="mask-type:alpha" maskUnits="userSpaceOnUse" x="29" y="29" width="40" height="40">
<rect x="29" y="29" width="40" height="40" fill="#D9D9D9"/>
</mask>
<g mask="url(#mask0_1003_586)">
<path d="M49 64L46.5834 61.8333C43.7778 59.3055 41.4584 57.125 39.625 55.2916C37.7917 53.4583 36.3334 51.8125 35.25 50.3541C34.1667 48.8958 33.4098 47.5555 32.9792 46.3333C32.5487 45.1111 32.3334 43.8611 32.3334 42.5833C32.3334 39.9722 33.2084 37.7916 34.9584 36.0416C36.7084 34.2916 38.8889 33.4166 41.5 33.4166C42.9445 33.4166 44.3195 33.7222 45.625 34.3333C46.9306 34.9444 48.0556 35.8055 49 36.9166C49.9445 35.8055 51.0695 34.9444 52.375 34.3333C53.6806 33.7222 55.0556 33.4166 56.5 33.4166C59.1112 33.4166 61.2917 34.2916 63.0417 36.0416C64.7917 37.7916 65.6667 39.9722 65.6667 42.5833C65.6667 43.8611 65.4514 45.1111 65.0209 46.3333C64.5903 47.5555 63.8334 48.8958 62.75 50.3541C61.6667 51.8125 60.2084 53.4583 58.375 55.2916C56.5417 57.125 54.2223 59.3055 51.4167 61.8333L49 64Z" fill="#0276FE"/>
</g>
</svg>
