<svg width="40" height="40" viewBox="0 0 40 40" fill="none" xmlns="http://www.w3.org/2000/svg">
<mask id="mask0_609_435" style="mask-type:alpha" maskUnits="userSpaceOnUse" x="0" y="0" width="40" height="40">
<rect width="40" height="40" fill="#D9D9D9"/>
</mask>
<g mask="url(#mask0_609_435)">
<path d="M9.1665 33.7507V8.8469C9.1665 8.00496 9.45817 7.29232 10.0415 6.70898C10.6248 6.12565 11.3375 5.83398 12.1794 5.83398H27.8203C28.6622 5.83398 29.3748 6.12565 29.9582 6.70898C30.5415 7.29232 30.8332 8.00496 30.8332 8.8469V33.7507L19.9998 29.1031L9.1665 33.7507ZM11.6665 29.9173L19.9998 26.334L28.3332 29.9173V8.8469C28.3332 8.71857 28.2797 8.60107 28.1728 8.4944C28.0661 8.38746 27.9486 8.33398 27.8203 8.33398H12.1794C12.0511 8.33398 11.9336 8.38746 11.8269 8.4944C11.72 8.60107 11.6665 8.71857 11.6665 8.8469V29.9173Z" fill="#838383"/>
</g>
</svg>
