<svg width="97" height="97" viewBox="0 0 97 97" fill="none" xmlns="http://www.w3.org/2000/svg">
<path d="M97 48.5C97 75.2858 75.2858 97 48.5 97C21.7142 97 0 75.2858 0 48.5C0 21.7142 21.7142 0 48.5 0C75.2858 0 97 21.7142 97 48.5Z" fill="#0075FF"/>
<mask id="mask0_1003_599" style="mask-type:alpha" maskUnits="userSpaceOnUse" x="29" y="29" width="40" height="40">
<rect x="29" y="29" width="40" height="40" fill="#D9D9D9"/>
</mask>
<g mask="url(#mask0_1003_599)">
<path d="M48.9999 64L46.5833 61.8333C43.7777 59.3055 41.4583 57.125 39.6249 55.2916C37.7916 53.4583 36.3333 51.8125 35.2499 50.3541C34.1666 48.8958 33.4096 47.5555 32.9791 46.3333C32.5485 45.1111 32.3333 43.8611 32.3333 42.5833C32.3333 39.9722 33.2083 37.7916 34.9583 36.0416C36.7083 34.2916 38.8888 33.4166 41.4999 33.4166C42.9444 33.4166 44.3194 33.7222 45.6249 34.3333C46.9305 34.9444 48.0555 35.8055 48.9999 36.9166C49.9444 35.8055 51.0694 34.9444 52.3749 34.3333C53.6805 33.7222 55.0555 33.4166 56.4999 33.4166C59.111 33.4166 61.2916 34.2916 63.0416 36.0416C64.7916 37.7916 65.6666 39.9722 65.6666 42.5833C65.6666 43.8611 65.4513 45.1111 65.0208 46.3333C64.5902 47.5555 63.8333 48.8958 62.7499 50.3541C61.6666 51.8125 60.2083 53.4583 58.3749 55.2916C56.5416 57.125 54.2221 59.3055 51.4166 61.8333L48.9999 64Z" fill="white"/>
</g>
</svg>
