<svg width="34" height="31" viewBox="0 0 34 31" fill="none" xmlns="http://www.w3.org/2000/svg">
<path d="M17 31L14.5833 28.8334C11.7778 26.3056 9.45831 24.125 7.62498 22.2917C5.79165 20.4584 4.33331 18.8125 3.24998 17.3542C2.16665 15.8959 1.4097 14.5556 0.979146 13.3334C0.548591 12.1111 0.333313 10.8611 0.333313 9.58335C0.333313 6.97224 1.20831 4.79169 2.95831 3.04169C4.70831 1.29169 6.88887 0.416687 9.49998 0.416687C10.9444 0.416687 12.3194 0.722243 13.625 1.33335C14.9305 1.94446 16.0555 2.80558 17 3.91669C17.9444 2.80558 19.0694 1.94446 20.375 1.33335C21.6805 0.722243 23.0555 0.416687 24.5 0.416687C27.1111 0.416687 29.2916 1.29169 31.0416 3.04169C32.7916 4.79169 33.6666 6.97224 33.6666 9.58335C33.6666 10.8611 33.4514 12.1111 33.0208 13.3334C32.5903 14.5556 31.8333 15.8959 30.75 17.3542C29.6666 18.8125 28.2083 20.4584 26.375 22.2917C24.5416 24.125 22.2222 26.3056 19.4166 28.8334L17 31Z" fill="#0276FE"/>
</svg>
