<svg width="14" height="13" viewBox="0 0 14 13" fill="none" xmlns="http://www.w3.org/2000/svg">
<path d="M11.896 7.888C10.888 9.072 8.616 10.768 7 12.224C4.904 10.544 3.384 9.36 2.088 7.888C1.32 7.008 0.888 6.176 0.648 5.392C0.44 4.576 0.472 3.824 0.616 3.104C0.984 1.536 2.264 0.207999 4.104 0.207999C5.432 0.207999 6.36 1.2 7 2.112C7.64 1.2 8.472 0.207999 9.88 0.207999C11.72 0.207999 13.016 1.536 13.368 3.104C13.512 3.824 13.56 4.576 13.336 5.392C13.112 6.176 12.664 7.008 11.896 7.888Z" fill="#838383"/>
</svg>
