<svg width="47" height="42" viewBox="0 0 47 42" fill="none" xmlns="http://www.w3.org/2000/svg">
<path d="M13.0422 9.72632L19.485 1.71316C19.9452 1.12368 20.4917 0.690789 21.1245 0.414474C21.7572 0.138158 22.4188 0 23.1091 0C23.7994 0 24.4609 0.138158 25.0937 0.414474C25.7265 0.690789 26.273 1.12368 26.7332 1.71316L33.1759 9.72632L42.9552 12.8763C43.9523 13.1711 44.7385 13.7145 45.3137 14.5066C45.889 15.2987 46.1766 16.1737 46.1766 17.1316C46.1766 17.5737 46.1095 18.0158 45.9752 18.4579C45.841 18.9 45.6205 19.3237 45.3137 19.7289L38.986 28.35L39.2161 37.4132C39.2544 38.7026 38.8134 39.7895 37.893 40.6737C36.9726 41.5579 35.8988 42 34.6716 42C34.5949 42 34.173 41.9447 33.406 41.8342L23.1091 39.0711L12.8121 41.8342C12.6204 41.9079 12.4095 41.9539 12.1794 41.9724C11.9493 41.9908 11.7383 42 11.5466 42C10.3194 42 9.24558 41.5579 8.32518 40.6737C7.40479 39.7895 6.96376 38.7026 7.00211 37.4132L7.23221 28.2947L0.961995 19.7289C0.655195 19.3237 0.434683 18.9 0.300458 18.4579C0.166233 18.0158 0.0991211 17.5737 0.0991211 17.1316C0.0991211 16.2105 0.377158 15.3539 0.933232 14.5618C1.48931 13.7697 2.26589 13.2079 3.26299 12.8763L13.0422 9.72632Z" fill="#0075FF"/>
</svg>
