<svg width="40" height="40" viewBox="0 0 40 40" fill="none" xmlns="http://www.w3.org/2000/svg">
<mask id="mask0_607_186" style="mask-type:alpha" maskUnits="userSpaceOnUse" x="0" y="0" width="40" height="40">
<rect width="40" height="40" fill="#D9D9D9"/>
</mask>
<g mask="url(#mask0_607_186)">
<path d="M20 34.9993L17.5833 32.8327C14.7778 30.3049 12.4583 28.1243 10.625 26.291C8.79165 24.4577 7.33331 22.8118 6.24998 21.3535C5.16665 19.8952 4.4097 18.5549 3.97915 17.3327C3.54859 16.1105 3.33331 14.8605 3.33331 13.5827C3.33331 10.9716 4.20831 8.79102 5.95831 7.04102C7.70831 5.29102 9.88887 4.41602 12.5 4.41602C13.9444 4.41602 15.3194 4.72157 16.625 5.33268C17.9305 5.94379 19.0555 6.8049 20 7.91602C20.9444 6.8049 22.0694 5.94379 23.375 5.33268C24.6805 4.72157 26.0555 4.41602 27.5 4.41602C30.1111 4.41602 32.2916 5.29102 34.0416 7.04102C35.7916 8.79102 36.6666 10.9716 36.6666 13.5827C36.6666 14.8605 36.4514 16.1105 36.0208 17.3327C35.5903 18.5549 34.8333 19.8952 33.75 21.3535C32.6666 22.8118 31.2083 24.4577 29.375 26.291C27.5416 28.1243 25.2222 30.3049 22.4166 32.8327L20 34.9993Z" fill="#0276FE"/>
</g>
</svg>
