<svg width="40" height="40" viewBox="0 0 40 40" fill="none" xmlns="http://www.w3.org/2000/svg">
<mask id="mask0_609_441" style="mask-type:alpha" maskUnits="userSpaceOnUse" x="0" y="0" width="40" height="40">
<rect width="40" height="40" fill="#D9D9D9"/>
</mask>
<g mask="url(#mask0_609_441)">
<path d="M10.8331 16.8565L8.50935 18.1415C8.15268 18.3423 7.78407 18.3952 7.40351 18.3002C7.02324 18.2052 6.73268 17.9793 6.53185 17.6223L3.83976 12.9111C3.63893 12.5541 3.58601 12.1829 3.68101 11.7973C3.77601 11.4115 4.00199 11.1182 4.35893 10.9173L13.1089 5.83398H15.5768C15.8588 5.83398 16.0842 5.91843 16.2531 6.08732C16.4217 6.25621 16.506 6.48162 16.506 6.76357V7.34065C16.506 8.28926 16.8512 9.10871 17.5414 9.79898C18.2317 10.489 19.0512 10.834 19.9998 10.834C20.9484 10.834 21.7678 10.489 22.4581 9.79898C23.1484 9.10871 23.4935 8.28926 23.4935 7.34065V6.76357C23.4935 6.48162 23.5778 6.25621 23.7464 6.08732C23.9153 5.91843 24.1407 5.83398 24.4227 5.83398H26.8906L35.6406 10.9173C35.9975 11.1182 36.2235 11.4115 36.3185 11.7973C36.4135 12.1829 36.3606 12.5541 36.1598 12.9111L33.4677 17.6223C33.2668 17.9793 32.9805 18.2009 32.6085 18.2873C32.2368 18.374 31.8641 18.3169 31.4902 18.1161L29.1664 16.8819V32.6927C29.1664 33.1116 29.0253 33.462 28.7431 33.744C28.4612 34.0262 28.1107 34.1673 27.6918 34.1673H12.3077C11.8888 34.1673 11.5384 34.0262 11.2564 33.744C10.9742 33.462 10.8331 33.1116 10.8331 32.6927V16.8565Z" fill="#0276FE"/>
</g>
</svg>
