<svg width="40" height="40" viewBox="0 0 40 40" fill="none" xmlns="http://www.w3.org/2000/svg">
<mask id="mask0_609_118" style="mask-type:alpha" maskUnits="userSpaceOnUse" x="0" y="0" width="40" height="40">
<rect width="40" height="40" fill="#D9D9D9"/>
</mask>
<g mask="url(#mask0_609_118)">
<path d="M10.8333 16.8565L8.50959 18.1415C8.15293 18.3423 7.78431 18.3952 7.40376 18.3002C7.02348 18.2052 6.73293 17.9793 6.53209 17.6223L3.84001 12.9111C3.63918 12.5541 3.58626 12.1829 3.68126 11.7973C3.77626 11.4115 4.00223 11.1182 4.35918 10.9173L13.1092 5.83398H15.5771C15.859 5.83398 16.0845 5.91843 16.2533 6.08732C16.422 6.25621 16.5063 6.48162 16.5063 6.76357V7.34065C16.5063 8.28926 16.8514 9.10871 17.5417 9.79898C18.232 10.489 19.0514 10.834 20 10.834C20.9486 10.834 21.7681 10.489 22.4583 9.79898C23.1486 9.10871 23.4938 8.28926 23.4938 7.34065V6.76357C23.4938 6.48162 23.5781 6.25621 23.7467 6.08732C23.9156 5.91843 24.141 5.83398 24.4229 5.83398H26.8908L35.6408 10.9173C35.9978 11.1182 36.2238 11.4115 36.3188 11.7973C36.4138 12.1829 36.3608 12.5541 36.16 12.9111L33.4679 17.6223C33.2671 17.9793 32.9807 18.2009 32.6088 18.2873C32.2371 18.374 31.8643 18.3169 31.4904 18.1161L29.1667 16.8819V32.6927C29.1667 33.1116 29.0256 33.462 28.7433 33.744C28.4614 34.0262 28.111 34.1673 27.6921 34.1673H12.3079C11.889 34.1673 11.5386 34.0262 11.2567 33.744C10.9745 33.462 10.8333 33.1116 10.8333 32.6927V16.8565ZM13.3333 12.6673V31.6673H26.6667V12.6673L31.8013 15.4848L33.5192 12.584L26.3688 8.38523H25.8396C25.5832 9.79134 24.9188 10.9676 23.8463 11.914C22.7735 12.8607 21.4914 13.334 20 13.334C18.5086 13.334 17.2265 12.8607 16.1538 11.914C15.0813 10.9676 14.4168 9.79134 14.1604 8.38523H13.6313L6.48084 12.584L8.19876 15.4848L13.3333 12.6673Z" fill="#838383"/>
</g>
</svg>
