<svg width="27" height="29" viewBox="0 0 27 29" fill="none" xmlns="http://www.w3.org/2000/svg">
<mask id="mask0_431_205" style="mask-type:alpha" maskUnits="userSpaceOnUse" x="0" y="0" width="27" height="29">
<rect width="27" height="28.3966" fill="#D9D9D9"/>
</mask>
<g mask="url(#mask0_431_205)">
<path d="M22.3667 23L15.0167 15.65C14.4333 16.1167 13.7625 16.4861 13.0042 16.7583C12.2458 17.0306 11.4389 17.1667 10.5833 17.1667C8.46389 17.1667 6.67014 16.4326 5.20208 14.9646C3.73403 13.4965 3 11.7028 3 9.58333C3 7.46389 3.73403 5.67014 5.20208 4.20208C6.67014 2.73403 8.46389 2 10.5833 2C12.7028 2 14.4965 2.73403 15.9646 4.20208C17.4326 5.67014 18.1667 7.46389 18.1667 9.58333C18.1667 10.4389 18.0306 11.2458 17.7583 12.0042C17.4861 12.7625 17.1167 13.4333 16.65 14.0167L24 21.3667L22.3667 23ZM10.5833 14.8333C12.0417 14.8333 13.2812 14.3229 14.3021 13.3021C15.3229 12.2812 15.8333 11.0417 15.8333 9.58333C15.8333 8.125 15.3229 6.88542 14.3021 5.86458C13.2812 4.84375 12.0417 4.33333 10.5833 4.33333C9.125 4.33333 7.88542 4.84375 6.86458 5.86458C5.84375 6.88542 5.33333 8.125 5.33333 9.58333C5.33333 11.0417 5.84375 12.2812 6.86458 13.3021C7.88542 14.3229 9.125 14.8333 10.5833 14.8333Z" fill="#838383"/>
</g>
</svg>
