<svg width="27" height="30" viewBox="0 0 27 30" fill="none" xmlns="http://www.w3.org/2000/svg">
<mask id="mask0_431_804" style="mask-type:alpha" maskUnits="userSpaceOnUse" x="0" y="0" width="27" height="30">
<rect y="0.828125" width="27" height="28.3966" fill="#D9D9D9"/>
</mask>
<g mask="url(#mask0_431_804)">
<path d="M22.05 25.6744L14.9625 18.2203C14.4 18.6935 13.7531 19.0682 13.0219 19.3443C12.2906 19.6204 11.5125 19.7584 10.6875 19.7584C8.64375 19.7584 6.91406 19.014 5.49844 17.5251C4.08281 16.0363 3.375 14.2171 3.375 12.0677C3.375 9.91822 4.08281 8.09907 5.49844 6.61022C6.91406 5.12138 8.64375 4.37695 10.6875 4.37695C12.7312 4.37695 14.4609 5.12138 15.8766 6.61022C17.2922 8.09907 18 9.91822 18 12.0677C18 12.9354 17.8688 13.7537 17.6063 14.5228C17.3438 15.2919 16.9875 15.9722 16.5375 16.5638L23.625 24.0179L22.05 25.6744ZM10.6875 17.392C12.0938 17.392 13.2891 16.8744 14.2734 15.8391C15.2578 14.8038 15.75 13.5467 15.75 12.0677C15.75 10.5887 15.2578 9.33156 14.2734 8.29627C13.2891 7.26098 12.0938 6.74333 10.6875 6.74333C9.28125 6.74333 8.08594 7.26098 7.10156 8.29627C6.11719 9.33156 5.625 10.5887 5.625 12.0677C5.625 13.5467 6.11719 14.8038 7.10156 15.8391C8.08594 16.8744 9.28125 17.392 10.6875 17.392Z" fill="#0276FE"/>
</g>
</svg>
