<svg width="27" height="30" viewBox="0 0 27 30" fill="none" xmlns="http://www.w3.org/2000/svg">

<mask id="mask0_268_1933" style="mask-type:alpha" maskUnits="userSpaceOnUse" x="0" y="0" width="27" height="30">
<rect y="0.827637" width="27" height="28.3966" fill="#D9D9D9"/>
</mask>
<g mask="url(#mask0_268_1933)">
<path d="M22.05 25.6745L14.9625 18.2205C14.4 18.6937 13.7531 19.0684 13.0219 19.3445C12.2906 19.6206 11.5125 19.7586 10.6875 19.7586C8.64375 19.7586 6.91406 19.0142 5.49844 17.5253C4.08281 16.0365 3.375 14.2173 3.375 12.0679C3.375 9.91841 4.08281 8.09925 5.49844 6.61041C6.91406 5.12156 8.64375 4.37714 10.6875 4.37714C12.7312 4.37714 14.4609 5.12156 15.8766 6.61041C17.2922 8.09925 18 9.91841 18 12.0679C18 12.9355 17.8688 13.7539 17.6063 14.523C17.3438 15.2921 16.9875 15.9724 16.5375 16.564L23.625 24.0181L22.05 25.6745ZM10.6875 17.3922C12.0938 17.3922 13.2891 16.8746 14.2734 15.8393C15.2578 14.804 15.75 13.5469 15.75 12.0679C15.75 10.5889 15.2578 9.33174 14.2734 8.29645C13.2891 7.26116 12.0938 6.74352 10.6875 6.74352C9.28125 6.74352 8.08594 7.26116 7.10156 8.29645C6.11719 9.33174 5.625 10.5889 5.625 12.0679C5.625 13.5469 6.11719 14.804 7.10156 15.8393C8.08594 16.8746 9.28125 17.3922 10.6875 17.3922Z" fill="#0276FE"/>

</g>
</svg>
