<svg width="38" height="37" viewBox="0 0 38 37" fill="none" xmlns="http://www.w3.org/2000/svg">
<path d="M18.0489 2.16312C18.3483 1.24181 19.6517 1.24181 19.9511 2.16312L22.9883 11.5106C23.3899 12.7467 24.5417 13.5836 25.8414 13.5836H35.67C36.6387 13.5836 37.0415 14.8232 36.2578 15.3926L28.3063 21.1697C27.2548 21.9336 26.8149 23.2877 27.2165 24.5238L30.2537 33.8713C30.553 34.7926 29.4985 35.5588 28.7148 34.9894L20.7634 29.2123C19.7119 28.4483 18.2881 28.4483 17.2366 29.2123L9.28517 34.9894C8.50145 35.5588 7.44697 34.7926 7.74632 33.8713L10.7835 24.5238C11.1851 23.2877 10.7452 21.9336 9.6937 21.1697L1.74223 15.3926C0.958514 14.8232 1.36129 13.5836 2.33001 13.5836H12.1586C13.4583 13.5836 14.6101 12.7467 15.0117 11.5106L18.0489 2.16312Z" stroke="#0075FF" stroke-width="2"/>
</svg>
