<svg width="220" height="77" viewBox="0 0 220 77" fill="none" xmlns="http://www.w3.org/2000/svg">
<path fill-rule="evenodd" clip-rule="evenodd" d="M114.33 2.5C112.406 -0.833335 107.594 -0.833331 105.67 2.5L97.2983 17H30C13.4315 17 0 30.4315 0 47C0 63.5685 13.4315 77 30 77H190C206.569 77 220 63.5685 220 47C220 30.4315 206.569 17 190 17H122.702L114.33 2.5Z" fill="black"/>
<path d="M102.841 27.316V37.936H101.713V27.316H102.841ZM102.025 31.552V32.512H100.081V31.552H102.025ZM100.429 27.532V37.396H99.3248V27.532H100.429ZM95.4608 28.564V34.684H94.2968V28.564H95.4608ZM94.9928 34.228C96.3048 34.228 97.5168 34.12 98.6288 33.904L98.7488 34.924C98.0928 35.044 97.4608 35.128 96.8528 35.176C96.2448 35.224 95.6248 35.248 94.9928 35.248H94.2968V34.228H94.9928ZM116.659 32.488V33.424H107.071V32.488H116.659ZM112.279 34.06V34.348C112.279 34.956 112.107 35.508 111.763 36.004C111.419 36.5 110.939 36.908 110.323 37.228C109.707 37.556 109.003 37.78 108.211 37.9L107.767 36.988C108.455 36.9 109.063 36.728 109.591 36.472C110.119 36.216 110.527 35.908 110.815 35.548C111.111 35.18 111.259 34.78 111.259 34.348V34.06H112.279ZM112.459 34.06V34.348C112.459 34.78 112.603 35.18 112.891 35.548C113.187 35.908 113.599 36.216 114.127 36.472C114.663 36.728 115.275 36.9 115.963 36.988L115.507 37.9C114.715 37.78 114.011 37.556 113.395 37.228C112.787 36.908 112.311 36.5 111.967 36.004C111.623 35.508 111.451 34.956 111.451 34.348V34.06H112.459ZM112.447 31.24V32.86H111.259V31.24H112.447ZM111.871 27.52C112.639 27.52 113.307 27.604 113.875 27.772C114.443 27.932 114.879 28.164 115.183 28.468C115.495 28.772 115.651 29.132 115.651 29.548C115.651 29.972 115.495 30.336 115.183 30.64C114.879 30.936 114.443 31.168 113.875 31.336C113.307 31.496 112.639 31.576 111.871 31.576C111.103 31.576 110.431 31.496 109.855 31.336C109.287 31.168 108.851 30.936 108.547 30.64C108.243 30.336 108.091 29.972 108.091 29.548C108.091 29.132 108.243 28.772 108.547 28.468C108.851 28.164 109.287 27.932 109.855 27.772C110.431 27.604 111.103 27.52 111.871 27.52ZM111.871 28.432C111.335 28.432 110.875 28.476 110.491 28.564C110.107 28.652 109.811 28.78 109.603 28.948C109.403 29.116 109.303 29.316 109.303 29.548C109.303 29.788 109.403 29.992 109.603 30.16C109.811 30.32 110.107 30.444 110.491 30.532C110.875 30.612 111.335 30.652 111.871 30.652C112.399 30.652 112.855 30.612 113.239 30.532C113.623 30.444 113.915 30.32 114.115 30.16C114.323 29.992 114.427 29.788 114.427 29.548C114.427 29.316 114.323 29.116 114.115 28.948C113.915 28.78 113.623 28.652 113.239 28.564C112.855 28.476 112.399 28.432 111.871 28.432ZM122.743 28.432V29.38H118.027V28.432H122.743ZM120.727 31.48V35.08H119.575V31.48H120.727ZM123.427 28.432V29.116C123.427 29.804 123.407 30.464 123.367 31.096C123.335 31.728 123.255 32.456 123.127 33.28L121.963 33.184C122.091 32.384 122.171 31.676 122.203 31.06C122.243 30.444 122.263 29.796 122.263 29.116V28.432H123.427ZM125.767 27.316V37.936H124.603V27.316H125.767ZM127.375 31.696V32.68H125.443V31.696H127.375ZM117.451 34.708C118.731 34.708 119.907 34.692 120.979 34.66C122.059 34.62 123.071 34.54 124.015 34.42L124.075 35.272C123.099 35.432 122.067 35.54 120.979 35.596C119.891 35.652 118.759 35.68 117.583 35.68L117.451 34.708Z" fill="white"/>
<path d="M61.9873 47.68V65.74H59.3273V47.68H61.9873ZM50.5473 49.12V53.46H54.1673V49.12H56.7873V61.54H47.9073V49.12H50.5473ZM50.5473 59.42H54.1673V55.52H50.5473V59.42ZM77.4877 49.2V51.34H66.0877V49.2H77.4877ZM80.8077 61.4V63.56H64.5277V61.4H80.8077ZM70.5277 55.76V62.08H67.9077V55.76H70.5277ZM79.3877 49.2V50.94C79.3877 52.4467 79.3477 53.8133 79.2677 55.04C79.2011 56.2533 79.0277 57.6667 78.7477 59.28L76.1077 59.02C76.3744 57.5133 76.5411 56.16 76.6077 54.96C76.6744 53.76 76.7077 52.42 76.7077 50.94V49.2H79.3877ZM74.9677 55.76V62.08H72.3477V55.76H74.9677ZM90.5682 50.38V52.48H81.9682V50.38H90.5682ZM86.3082 53.26C87.0549 53.26 87.7282 53.4467 88.3282 53.82C88.9282 54.1933 89.3949 54.7067 89.7282 55.36C90.0749 56 90.2482 56.74 90.2482 57.58C90.2482 58.4067 90.0749 59.1467 89.7282 59.8C89.3949 60.4533 88.9282 60.96 88.3282 61.32C87.7282 61.68 87.0482 61.86 86.2882 61.86C85.5415 61.86 84.8682 61.68 84.2682 61.32C83.6682 60.96 83.1949 60.4533 82.8482 59.8C82.5149 59.1467 82.3482 58.4 82.3482 57.56C82.3482 56.7333 82.5149 56 82.8482 55.36C83.1949 54.7067 83.6682 54.1933 84.2682 53.82C84.8682 53.4467 85.5482 53.26 86.3082 53.26ZM86.2882 55.46C85.9815 55.46 85.7082 55.5467 85.4682 55.72C85.2282 55.88 85.0415 56.12 84.9082 56.44C84.7749 56.7467 84.7082 57.1267 84.7082 57.58C84.7082 58.0067 84.7749 58.38 84.9082 58.7C85.0415 59.0067 85.2282 59.2467 85.4682 59.42C85.7082 59.58 85.9815 59.66 86.2882 59.66C86.6082 59.66 86.8882 59.58 87.1282 59.42C87.3815 59.2467 87.5749 59.0067 87.7082 58.7C87.8415 58.38 87.9082 58.0067 87.9082 57.58C87.9082 57.1267 87.8415 56.7467 87.7082 56.44C87.5749 56.12 87.3815 55.88 87.1282 55.72C86.8882 55.5467 86.6082 55.46 86.2882 55.46ZM97.4682 47.7V65.7H94.9482V47.7H97.4682ZM95.7682 55V57.14H92.8482V55H95.7682ZM93.6482 48.04V64.94H91.1682V48.04H93.6482ZM87.6082 48.16V51.72H84.9882V48.16H87.6082ZM115.789 61.46V63.62H99.4887V61.46H115.789ZM108.949 57.66V61.98H106.289V57.66H108.949ZM103.829 48.82V51.56H111.389V48.82H114.029V58.2H101.189V48.82H103.829ZM103.829 56.1H111.389V53.64H103.829V56.1ZM121.969 48.66C122.889 48.66 123.722 48.8467 124.469 49.22C125.216 49.5933 125.802 50.1133 126.229 50.78C126.669 51.4467 126.889 52.1933 126.889 53.02C126.889 53.8467 126.669 54.6 126.229 55.28C125.802 55.9467 125.216 56.4667 124.469 56.84C123.722 57.2133 122.889 57.4 121.969 57.4C121.062 57.4 120.229 57.2133 119.469 56.84C118.722 56.4667 118.136 55.9467 117.709 55.28C117.282 54.6 117.069 53.8467 117.069 53.02C117.069 52.1933 117.282 51.4467 117.709 50.78C118.136 50.1133 118.722 49.5933 119.469 49.22C120.229 48.8467 121.062 48.66 121.969 48.66ZM121.969 50.86C121.529 50.86 121.136 50.9467 120.789 51.12C120.442 51.2933 120.169 51.5467 119.969 51.88C119.769 52.2 119.669 52.58 119.669 53.02C119.669 53.46 119.769 53.8467 119.969 54.18C120.169 54.5 120.442 54.7467 120.789 54.92C121.136 55.08 121.529 55.16 121.969 55.16C122.409 55.16 122.802 55.08 123.149 54.92C123.509 54.7467 123.789 54.5 123.989 54.18C124.189 53.8467 124.289 53.46 124.289 53.02C124.289 52.58 124.189 52.2 123.989 51.88C123.789 51.5467 123.509 51.2933 123.149 51.12C122.802 50.9467 122.409 50.86 121.969 50.86ZM131.149 47.7V57.74H128.469V47.7H131.149ZM133.509 51.5V53.68H130.429V51.5H133.509ZM122.709 58.5V59.12C122.709 60.0933 122.569 61 122.289 61.84C122.022 62.6667 121.589 63.3933 120.989 64.02C120.402 64.66 119.656 65.1467 118.749 65.48L117.429 63.56C118.176 63.28 118.796 62.9133 119.289 62.46C119.796 61.9933 120.162 61.48 120.389 60.92C120.616 60.3467 120.729 59.7467 120.729 59.12V58.5H122.709ZM123.309 58.5V59.12C123.309 60.0933 123.556 60.9933 124.049 61.82C124.556 62.6467 125.336 63.28 126.389 63.72L125.289 65.66C123.942 65.1533 122.956 64.3133 122.329 63.14C121.702 61.9533 121.389 60.6133 121.389 59.12V58.5H123.309ZM129.189 58.5V59.12C129.189 60.0267 129.056 60.9133 128.789 61.78C128.536 62.6333 128.116 63.4 127.529 64.08C126.942 64.7733 126.196 65.3 125.289 65.66L124.189 63.72C124.896 63.3867 125.476 62.9733 125.929 62.48C126.396 61.9733 126.736 61.4333 126.949 60.86C127.162 60.2867 127.269 59.7067 127.269 59.12V58.5H129.189ZM129.909 58.5V59.12C129.909 59.7867 130.016 60.4067 130.229 60.98C130.456 61.5533 130.816 62.0667 131.309 62.52C131.802 62.96 132.429 63.3067 133.189 63.56L131.889 65.48C130.516 65 129.509 64.2067 128.869 63.1C128.229 61.9933 127.909 60.6667 127.909 59.12V58.5H129.909ZM139.37 48.92C140.263 48.92 141.063 49.1867 141.77 49.72C142.476 50.24 143.03 50.9933 143.43 51.98C143.83 52.9533 144.03 54.08 144.03 55.36C144.03 56.6667 143.83 57.8133 143.43 58.8C143.03 59.7733 142.476 60.5267 141.77 61.06C141.063 61.58 140.263 61.84 139.37 61.84C138.476 61.84 137.676 61.58 136.97 61.06C136.263 60.5267 135.71 59.7733 135.31 58.8C134.91 57.8133 134.71 56.6667 134.71 55.36C134.71 54.0667 134.91 52.9333 135.31 51.96C135.71 50.9867 136.263 50.24 136.97 49.72C137.676 49.1867 138.476 48.92 139.37 48.92ZM139.37 51.36C138.943 51.36 138.57 51.5133 138.25 51.82C137.93 52.1267 137.683 52.58 137.51 53.18C137.336 53.78 137.25 54.5067 137.25 55.36C137.25 56.2267 137.336 56.9667 137.51 57.58C137.683 58.18 137.93 58.64 138.25 58.96C138.57 59.2667 138.943 59.42 139.37 59.42C139.796 59.42 140.17 59.2667 140.49 58.96C140.823 58.64 141.076 58.18 141.25 57.58C141.423 56.9667 141.51 56.2267 141.51 55.36C141.51 54.5067 141.423 53.78 141.25 53.18C141.076 52.58 140.823 52.1267 140.49 51.82C140.17 51.5133 139.796 51.36 139.37 51.36ZM149.55 47.68V65.74H146.91V47.68H149.55ZM148.03 54.14V56.28H143.25V54.14H148.03ZM158.15 56.82V61.84H155.47V56.82H158.15ZM164.67 56.82V61.84H161.99V56.82H164.67ZM168.23 61.46V63.62H151.93V61.46H168.23ZM160.07 48.54C161.363 48.54 162.517 48.74 163.53 49.14C164.557 49.54 165.357 50.1067 165.93 50.84C166.517 51.5733 166.81 52.4267 166.81 53.4C166.81 54.36 166.517 55.2067 165.93 55.94C165.357 56.6733 164.557 57.24 163.53 57.64C162.517 58.04 161.363 58.24 160.07 58.24C158.777 58.24 157.617 58.04 156.59 57.64C155.577 57.24 154.777 56.6733 154.19 55.94C153.617 55.2067 153.33 54.36 153.33 53.4C153.33 52.4267 153.617 51.5733 154.19 50.84C154.777 50.1067 155.577 49.54 156.59 49.14C157.617 48.74 158.777 48.54 160.07 48.54ZM160.07 50.62C159.243 50.62 158.517 50.7333 157.89 50.96C157.277 51.1733 156.797 51.4933 156.45 51.92C156.117 52.3333 155.95 52.8267 155.95 53.4C155.95 53.9733 156.117 54.4733 156.45 54.9C156.797 55.3133 157.277 55.6333 157.89 55.86C158.517 56.0733 159.243 56.18 160.07 56.18C160.883 56.18 161.603 56.0733 162.23 55.86C162.857 55.6333 163.337 55.3133 163.67 54.9C164.003 54.4733 164.17 53.9733 164.17 53.4C164.17 52.8267 163.997 52.3333 163.65 51.92C163.317 51.4933 162.837 51.1733 162.21 50.96C161.597 50.7333 160.883 50.62 160.07 50.62ZM171.171 61.8C171.584 61.8 171.917 61.9333 172.171 62.2C172.437 62.4533 172.571 62.7867 172.571 63.2C172.571 63.6133 172.437 63.9533 172.171 64.22C171.917 64.4867 171.584 64.62 171.171 64.62C170.757 64.62 170.417 64.4867 170.151 64.22C169.884 63.9533 169.751 63.6133 169.751 63.2C169.751 62.7867 169.884 62.4533 170.151 62.2C170.417 61.9333 170.757 61.8 171.171 61.8Z" fill="#AED4FF"/>
</svg>
