<svg width="276" height="94" viewBox="0 0 276 94" fill="none" xmlns="http://www.w3.org/2000/svg">
<path fill-rule="evenodd" clip-rule="evenodd" d="M141.33 2.5C139.406 -0.833335 134.594 -0.833331 132.67 2.5L124.298 17H38.5C17.237 17 0 34.237 0 55.5C0 76.763 17.237 94 38.5 94H237.5C258.763 94 276 76.763 276 55.5C276 34.237 258.763 17 237.5 17H149.702L141.33 2.5Z" fill="black"/>
<path d="M94.8818 36.316V46.936H93.7538V36.316H94.8818ZM94.0658 40.552V41.512H92.1218V40.552H94.0658ZM92.4698 36.532V46.396H91.3658V36.532H92.4698ZM87.5018 37.564V43.684H86.3378V37.564H87.5018ZM87.0338 43.228C88.3458 43.228 89.5578 43.12 90.6698 42.904L90.7898 43.924C90.1338 44.044 89.5018 44.128 88.8938 44.176C88.2858 44.224 87.6658 44.248 87.0338 44.248H86.3378V43.228H87.0338ZM108.7 41.488V42.424H99.1117V41.488H108.7ZM104.32 43.06V43.348C104.32 43.956 104.148 44.508 103.804 45.004C103.46 45.5 102.98 45.908 102.364 46.228C101.748 46.556 101.044 46.78 100.252 46.9L99.8077 45.988C100.496 45.9 101.104 45.728 101.632 45.472C102.16 45.216 102.568 44.908 102.856 44.548C103.152 44.18 103.3 43.78 103.3 43.348V43.06H104.32ZM104.5 43.06V43.348C104.5 43.78 104.644 44.18 104.932 44.548C105.228 44.908 105.64 45.216 106.168 45.472C106.704 45.728 107.316 45.9 108.004 45.988L107.548 46.9C106.756 46.78 106.052 46.556 105.436 46.228C104.828 45.908 104.352 45.5 104.008 45.004C103.664 44.508 103.492 43.956 103.492 43.348V43.06H104.5ZM104.488 40.24V41.86H103.3V40.24H104.488ZM103.912 36.52C104.68 36.52 105.348 36.604 105.916 36.772C106.484 36.932 106.92 37.164 107.224 37.468C107.536 37.772 107.692 38.132 107.692 38.548C107.692 38.972 107.536 39.336 107.224 39.64C106.92 39.936 106.484 40.168 105.916 40.336C105.348 40.496 104.68 40.576 103.912 40.576C103.144 40.576 102.472 40.496 101.896 40.336C101.328 40.168 100.892 39.936 100.588 39.64C100.284 39.336 100.132 38.972 100.132 38.548C100.132 38.132 100.284 37.772 100.588 37.468C100.892 37.164 101.328 36.932 101.896 36.772C102.472 36.604 103.144 36.52 103.912 36.52ZM103.912 37.432C103.376 37.432 102.916 37.476 102.532 37.564C102.148 37.652 101.852 37.78 101.644 37.948C101.444 38.116 101.344 38.316 101.344 38.548C101.344 38.788 101.444 38.992 101.644 39.16C101.852 39.32 102.148 39.444 102.532 39.532C102.916 39.612 103.376 39.652 103.912 39.652C104.44 39.652 104.896 39.612 105.28 39.532C105.664 39.444 105.956 39.32 106.156 39.16C106.364 38.992 106.468 38.788 106.468 38.548C106.468 38.316 106.364 38.116 106.156 37.948C105.956 37.78 105.664 37.652 105.28 37.564C104.896 37.476 104.44 37.432 103.912 37.432ZM114.784 37.432V38.38H110.068V37.432H114.784ZM112.768 40.48V44.08H111.616V40.48H112.768ZM115.468 37.432V38.116C115.468 38.804 115.448 39.464 115.408 40.096C115.376 40.728 115.296 41.456 115.168 42.28L114.004 42.184C114.132 41.384 114.212 40.676 114.244 40.06C114.284 39.444 114.304 38.796 114.304 38.116V37.432H115.468ZM117.808 36.316V46.936H116.644V36.316H117.808ZM119.416 40.696V41.68H117.484V40.696H119.416ZM109.492 43.708C110.772 43.708 111.948 43.692 113.02 43.66C114.1 43.62 115.112 43.54 116.056 43.42L116.116 44.272C115.14 44.432 114.108 44.54 113.02 44.596C111.932 44.652 110.8 44.68 109.624 44.68L109.492 43.708ZM131.578 36.304V46.948H130.402V36.304H131.578ZM124.594 37.192V39.904H127.342V37.192H128.506V44.416H123.418V37.192H124.594ZM124.594 43.468H127.342V40.84H124.594V43.468ZM141.106 37.312V38.272H134.302V37.312H141.106ZM142.942 44.548V45.52H133.342V44.548H142.942ZM136.726 41.104V44.884H135.574V41.104H136.726ZM141.922 37.312V38.428C141.922 39.332 141.898 40.132 141.85 40.828C141.81 41.516 141.706 42.312 141.538 43.216L140.374 43.096C140.534 42.24 140.634 41.472 140.674 40.792C140.714 40.104 140.734 39.316 140.734 38.428V37.312H141.922ZM139.354 41.104V44.884H138.202V41.104H139.354ZM149.002 38.056V38.992H143.806V38.056H149.002ZM146.41 39.628C146.858 39.628 147.254 39.732 147.598 39.94C147.95 40.148 148.222 40.44 148.414 40.816C148.614 41.184 148.714 41.604 148.714 42.076C148.714 42.564 148.614 42.996 148.414 43.372C148.222 43.74 147.95 44.028 147.598 44.236C147.254 44.444 146.858 44.548 146.41 44.548C145.978 44.548 145.586 44.444 145.234 44.236C144.89 44.028 144.618 43.74 144.418 43.372C144.218 42.996 144.118 42.564 144.118 42.076C144.118 41.604 144.218 41.184 144.418 40.816C144.618 40.44 144.89 40.148 145.234 39.94C145.586 39.732 145.978 39.628 146.41 39.628ZM146.41 40.6C146.17 40.6 145.954 40.664 145.762 40.792C145.578 40.912 145.43 41.084 145.318 41.308C145.214 41.532 145.162 41.788 145.162 42.076C145.162 42.372 145.214 42.632 145.318 42.856C145.43 43.072 145.578 43.244 145.762 43.372C145.954 43.492 146.17 43.552 146.41 43.552C146.658 43.552 146.874 43.492 147.058 43.372C147.25 43.244 147.398 43.072 147.502 42.856C147.614 42.632 147.67 42.376 147.67 42.088C147.67 41.792 147.614 41.532 147.502 41.308C147.398 41.084 147.25 40.912 147.058 40.792C146.866 40.664 146.65 40.6 146.41 40.6ZM152.854 36.316V46.936H151.738V36.316H152.854ZM152.11 40.732V41.692H150.19V40.732H152.11ZM150.586 36.544V46.432H149.47V36.544H150.586ZM146.998 36.604V38.644H145.834V36.604H146.998ZM156.743 36.724V37.936H161.495V36.724H162.671V40.996H155.579V36.724H156.743ZM156.743 40.072H161.495V38.86H156.743V40.072ZM163.907 42.052V43H154.319V42.052H163.907ZM159.695 40.48V42.448H158.519V40.48H159.695ZM162.839 45.772V46.732H155.531V45.772H162.839ZM156.707 43.768V46.108H155.531V43.768H156.707ZM176.357 36.316V41.704H175.181V36.316H176.357ZM173.033 36.796C173.033 38.14 172.613 39.24 171.773 40.096C170.933 40.952 169.717 41.568 168.125 41.944L167.729 40.996C169.057 40.692 170.057 40.232 170.729 39.616C171.409 38.992 171.749 38.252 171.749 37.396V36.796H173.033ZM172.277 36.796V37.744H168.293V36.796H172.277ZM175.349 37.78V38.68H172.637V37.78H175.349ZM175.301 39.808V40.72H172.553V39.808H175.301ZM176.357 42.148V44.884H170.645V46.432H169.481V43.984H175.181V43.084H169.457V42.148H176.357ZM176.657 45.892V46.828H169.481V45.892H176.657ZM183.245 37.432V38.38H178.529V37.432H183.245ZM181.229 40.48V44.08H180.077V40.48H181.229ZM183.929 37.432V38.116C183.929 38.804 183.909 39.464 183.869 40.096C183.837 40.728 183.757 41.456 183.629 42.28L182.465 42.184C182.593 41.384 182.673 40.676 182.705 40.06C182.745 39.444 182.765 38.796 182.765 38.116V37.432H183.929ZM186.269 36.316V46.936H185.105V36.316H186.269ZM187.877 40.696V41.68H185.945V40.696H187.877ZM177.953 43.708C179.233 43.708 180.409 43.692 181.481 43.66C182.561 43.62 183.573 43.54 184.517 43.42L184.577 44.272C183.601 44.432 182.569 44.54 181.481 44.596C180.393 44.652 179.261 44.68 178.085 44.68L177.953 43.708ZM189.413 47.536H188.573L188.993 44.956H190.181L189.413 47.536Z" fill="white"/>
<path d="M41.8746 54.416V76.088H38.6586V54.416H41.8746ZM30.2106 55.904C31.3146 55.904 32.2906 56.224 33.1386 56.864C34.0026 57.488 34.6746 58.392 35.1546 59.576C35.6506 60.744 35.8986 62.096 35.8986 63.632C35.8986 65.2 35.6506 66.576 35.1546 67.76C34.6746 68.928 34.0026 69.832 33.1386 70.472C32.2906 71.096 31.3146 71.408 30.2106 71.408C29.1226 71.408 28.1466 71.096 27.2826 70.472C26.4186 69.832 25.7386 68.928 25.2426 67.76C24.7626 66.576 24.5226 65.2 24.5226 63.632C24.5226 62.08 24.7626 60.72 25.2426 59.552C25.7386 58.384 26.4186 57.488 27.2826 56.864C28.1466 56.224 29.1226 55.904 30.2106 55.904ZM30.2106 58.832C29.6826 58.832 29.2186 59.016 28.8186 59.384C28.4346 59.752 28.1306 60.296 27.9066 61.016C27.6986 61.736 27.5946 62.608 27.5946 63.632C27.5946 64.672 27.6986 65.56 27.9066 66.296C28.1306 67.016 28.4346 67.568 28.8186 67.952C29.2186 68.32 29.6826 68.504 30.2106 68.504C30.7386 68.504 31.1946 68.32 31.5786 67.952C31.9786 67.568 32.2826 67.016 32.4906 66.296C32.7146 65.56 32.8266 64.672 32.8266 63.632C32.8266 62.608 32.7146 61.736 32.4906 61.016C32.2826 60.296 31.9786 59.752 31.5786 59.384C31.1946 59.016 30.7386 58.832 30.2106 58.832ZM57.8464 56.096V59.168C57.8464 61.024 57.6304 62.776 57.1984 64.424C56.7824 66.056 56.1264 67.504 55.2304 68.768C54.3504 70.016 53.2384 70.968 51.8944 71.624L49.9984 69.032C51.1824 68.488 52.1664 67.704 52.9504 66.68C53.7344 65.656 54.3184 64.496 54.7024 63.2C55.0864 61.904 55.2784 60.56 55.2784 59.168V56.096H57.8464ZM58.4704 56.096V59.168C58.4704 60.528 58.6384 61.824 58.9744 63.056C59.3264 64.288 59.8704 65.4 60.6064 66.392C61.3584 67.368 62.2944 68.136 63.4144 68.696L61.4944 71.24C60.2304 70.6 59.1824 69.672 58.3504 68.456C57.5184 67.24 56.9024 65.84 56.5024 64.256C56.1024 62.672 55.9024 60.976 55.9024 59.168V56.096H58.4704ZM67.3984 54.464V76.064H64.1824V54.464H67.3984ZM70.4944 62.72V65.384H66.6784V62.72H70.4944ZM89.3589 54.416V76.088H86.1429V54.416H89.3589ZM77.6949 55.904C78.7989 55.904 79.7749 56.224 80.6229 56.864C81.4869 57.488 82.1589 58.392 82.6389 59.576C83.1349 60.744 83.3829 62.096 83.3829 63.632C83.3829 65.2 83.1349 66.576 82.6389 67.76C82.1589 68.928 81.4869 69.832 80.6229 70.472C79.7749 71.096 78.7989 71.408 77.6949 71.408C76.6069 71.408 75.6309 71.096 74.7669 70.472C73.9029 69.832 73.2229 68.928 72.7269 67.76C72.2469 66.576 72.0069 65.2 72.0069 63.632C72.0069 62.08 72.2469 60.72 72.7269 59.552C73.2229 58.384 73.9029 57.488 74.7669 56.864C75.6309 56.224 76.6069 55.904 77.6949 55.904ZM77.6949 58.832C77.1669 58.832 76.7029 59.016 76.3029 59.384C75.9189 59.752 75.6149 60.296 75.3909 61.016C75.1829 61.736 75.0789 62.608 75.0789 63.632C75.0789 64.672 75.1829 65.56 75.3909 66.296C75.6149 67.016 75.9189 67.568 76.3029 67.952C76.7029 68.32 77.1669 68.504 77.6949 68.504C78.2229 68.504 78.6789 68.32 79.0629 67.952C79.4629 67.568 79.7669 67.016 79.9749 66.296C80.1989 65.56 80.3109 64.672 80.3109 63.632C80.3109 62.608 80.1989 61.736 79.9749 61.016C79.7669 60.296 79.4629 59.752 79.0629 59.384C78.6789 59.016 78.2229 58.832 77.6949 58.832ZM111.968 70.88V73.472H92.4075V70.88H111.968ZM103.184 57.44V58.592C103.184 60.128 102.84 61.528 102.152 62.792C101.464 64.056 100.456 65.128 99.1275 66.008C97.8155 66.888 96.2395 67.496 94.3995 67.832L93.1515 65.264C94.7195 65.024 96.0555 64.576 97.1595 63.92C98.2795 63.248 99.1115 62.448 99.6555 61.52C100.216 60.592 100.496 59.616 100.496 58.592V57.44H103.184ZM103.832 57.44V58.592C103.832 59.616 104.112 60.584 104.672 61.496C105.232 62.392 106.072 63.168 107.192 63.824C108.312 64.48 109.68 64.928 111.296 65.168L110.048 67.712C108.176 67.376 106.568 66.784 105.224 65.936C103.896 65.088 102.88 64.04 102.176 62.792C101.488 61.528 101.144 60.128 101.144 58.592V57.44H103.832ZM110.288 56.216V58.76H94.0395V56.216H110.288ZM132.944 64.112V66.416H113.384V64.112H132.944ZM130.616 67.448V72.608H118.76V74.408H115.592V70.616H127.472V69.608H115.568V67.448H130.616ZM131.216 73.736V75.896H115.592V73.736H131.216ZM130.568 54.8V59.96H118.952V61.664H115.808V57.944H127.424V56.96H115.784V54.8H130.568ZM130.976 60.992V63.176H115.808V60.992H130.976ZM151.244 68.288V76.088H148.028V68.288H151.244ZM159.428 67.352V69.944H139.892V67.352H159.428ZM150.836 58.352V58.832C150.836 60.064 150.492 61.208 149.804 62.264C149.132 63.304 148.124 64.184 146.78 64.904C145.452 65.624 143.852 66.088 141.98 66.296L140.876 63.8C142.444 63.624 143.764 63.272 144.836 62.744C145.924 62.216 146.724 61.608 147.236 60.92C147.764 60.216 148.028 59.52 148.028 58.832V58.352H150.836ZM151.244 58.352V58.832C151.244 59.504 151.508 60.192 152.036 60.896C152.564 61.584 153.364 62.2 154.436 62.744C155.524 63.272 156.844 63.624 158.396 63.8L157.268 66.296C155.396 66.088 153.796 65.624 152.468 64.904C151.14 64.184 150.132 63.296 149.444 62.24C148.772 61.184 148.436 60.048 148.436 58.832V58.352H151.244ZM157.676 56.888V59.408H141.644V56.888H157.676ZM151.244 54.512V57.752H148.028V54.512H151.244ZM168.236 58.688V59.48C168.236 61.56 167.732 63.392 166.724 64.976C165.716 66.544 164.22 67.648 162.236 68.288L160.676 65.768C161.812 65.416 162.748 64.92 163.484 64.28C164.236 63.624 164.78 62.888 165.116 62.072C165.468 61.256 165.644 60.392 165.644 59.48V58.688H168.236ZM168.836 58.688V59.48C168.836 60.312 169.012 61.12 169.364 61.904C169.716 62.672 170.26 63.368 170.996 63.992C171.748 64.616 172.692 65.096 173.828 65.432L172.292 67.928C170.964 67.528 169.844 66.912 168.932 66.08C168.02 65.248 167.34 64.264 166.892 63.128C166.444 61.992 166.22 60.776 166.22 59.48V58.688H168.836ZM173.06 56.96V59.456H161.444V56.96H173.06ZM168.836 54.608V57.896H165.644V54.608H168.836ZM177.356 60.704V63.296H172.364V60.704H177.356ZM178.94 54.464V70.424H175.748V54.464H178.94ZM179.444 73.136V75.68H164.636V73.136H179.444ZM167.852 69.104V74.816H164.636V69.104H167.852ZM199.317 64.376V66.896H184.101V64.376H199.317ZM201.405 70.856V73.472H181.845V70.856H201.405ZM199.149 56.168V58.784H187.269V65.408H184.101V56.168H199.149ZM220.918 54.416V76.088H217.702V54.416H220.918ZM218.23 58.976V61.544H214.222V58.976H218.23ZM205.27 68.696C207.062 68.696 208.638 68.664 209.998 68.6C211.358 68.52 212.758 68.376 214.198 68.168L214.414 70.76C212.974 70.984 211.558 71.136 210.166 71.216C208.774 71.28 207.142 71.312 205.27 71.312H203.518V68.696H205.27ZM213.166 56.24V64.664H206.71V69.272H203.518V62.144H209.998V58.76H203.494V56.24H213.166ZM218.182 64.88V67.424H214.174V64.88H218.182ZM231.262 65.384V71.408H228.046V65.384H231.262ZM239.086 65.384V71.408H235.87V65.384H239.086ZM243.358 70.952V73.544H223.798V70.952H243.358ZM233.566 55.448C235.118 55.448 236.502 55.688 237.718 56.168C238.95 56.648 239.91 57.328 240.598 58.208C241.302 59.088 241.654 60.112 241.654 61.28C241.654 62.432 241.302 63.448 240.598 64.328C239.91 65.208 238.95 65.888 237.718 66.368C236.502 66.848 235.118 67.088 233.566 67.088C232.014 67.088 230.622 66.848 229.39 66.368C228.174 65.888 227.214 65.208 226.51 64.328C225.822 63.448 225.478 62.432 225.478 61.28C225.478 60.112 225.822 59.088 226.51 58.208C227.214 57.328 228.174 56.648 229.39 56.168C230.622 55.688 232.014 55.448 233.566 55.448ZM233.566 57.944C232.574 57.944 231.702 58.08 230.95 58.352C230.214 58.608 229.638 58.992 229.222 59.504C228.822 60 228.622 60.592 228.622 61.28C228.622 61.968 228.822 62.568 229.222 63.08C229.638 63.576 230.214 63.96 230.95 64.232C231.702 64.488 232.574 64.616 233.566 64.616C234.542 64.616 235.406 64.488 236.158 64.232C236.91 63.96 237.486 63.576 237.886 63.08C238.286 62.568 238.486 61.968 238.486 61.28C238.486 60.592 238.278 60 237.862 59.504C237.462 58.992 236.886 58.608 236.134 58.352C235.398 58.08 234.542 57.944 233.566 57.944ZM249.959 68.96H246.959L246.407 55.328H250.415L249.959 68.96ZM248.471 71.336C248.967 71.336 249.367 71.496 249.671 71.816C249.991 72.12 250.151 72.528 250.151 73.04C250.151 73.536 249.991 73.944 249.671 74.264C249.367 74.584 248.967 74.744 248.471 74.744C247.975 74.744 247.567 74.584 247.247 74.264C246.927 73.944 246.767 73.536 246.767 73.04C246.767 72.528 246.927 72.12 247.247 71.816C247.567 71.496 247.975 71.336 248.471 71.336Z" fill="#AED4FF"/>
</svg>
