<svg width="47" height="42" viewBox="0 0 47 42" fill="none" xmlns="http://www.w3.org/2000/svg">
<path d="M13.3634 10.4156L13.5698 10.3491L13.7057 10.1801L20.1485 2.16691L20.1485 2.16695L20.1549 2.15877C20.5474 1.65611 21 1.30229 21.5134 1.0781L21.2255 0.41874L21.5134 1.0781C22.0548 0.841684 22.6177 0.724138 23.2082 0.724138C23.7987 0.724138 24.3616 0.841684 24.903 1.0781C25.4164 1.30229 25.8691 1.65611 26.2615 2.15877L26.2614 2.15882L26.2679 2.16691L32.7107 10.1801L32.8466 10.3491L33.053 10.4156L42.8323 13.5656L42.8406 13.5683L42.849 13.5708C43.7032 13.8232 44.3515 14.2774 44.8269 14.9321C45.3144 15.6034 45.5516 16.3301 45.5516 17.1316C45.5516 17.4992 45.4959 17.8705 45.3815 18.2475C45.2744 18.6 45.0958 18.948 44.8355 19.2919L44.8354 19.2918L44.8291 19.3005L38.5013 27.9215L38.3549 28.121L38.3612 28.3684L38.5913 37.4315L38.5914 37.4347C38.6237 38.5222 38.2615 39.4107 37.4904 40.1515C36.703 40.908 35.812 41.2721 34.7866 41.2758C34.7811 41.2753 34.7634 41.2738 34.7283 41.2699C34.6728 41.2638 34.5943 41.2541 34.4909 41.2406C34.2923 41.2145 34.0128 41.1756 33.6511 41.1236L23.3959 38.3717L23.2082 38.3213L23.0205 38.3717L12.7236 41.1348L12.6869 41.1447L12.6515 41.1583C12.532 41.2042 12.39 41.237 12.2207 41.2505C12.0061 41.2677 11.8148 41.2759 11.6457 41.2759C10.6137 41.2759 9.71749 40.9119 8.92598 40.1515C8.15491 39.4107 7.79271 38.5222 7.82506 37.4347L7.82514 37.4314L8.05524 28.313L8.06147 28.0662L7.91565 27.867L1.64543 19.3012L1.64551 19.3012L1.63847 19.2919C1.37811 18.948 1.19951 18.6 1.09249 18.2475C0.978031 17.8705 0.92238 17.4992 0.92238 17.1316C0.92238 16.3673 1.1499 15.6547 1.62503 14.9779C2.0836 14.3247 2.72595 13.8516 3.58756 13.5645L13.3634 10.4156Z" stroke="#0075FF" stroke-width="1.44828"/>
</svg>
