<svg width="40" height="40" viewBox="0 0 40 40" fill="none" xmlns="http://www.w3.org/2000/svg">
<mask id="mask0_609_220" style="mask-type:alpha" maskUnits="userSpaceOnUse" x="0" y="0" width="40" height="40">
<rect width="40" height="40" fill="#D9D9D9"/>
</mask>
<g mask="url(#mask0_609_220)">
<path d="M19.9999 34.9993L17.5833 32.8327C14.7777 30.3049 12.4583 28.1243 10.6249 26.291C8.79158 24.4577 7.33325 22.8118 6.24992 21.3535C5.16659 19.8952 4.40964 18.5549 3.97909 17.3327C3.54853 16.1105 3.33325 14.8605 3.33325 13.5827C3.33325 10.9716 4.20825 8.79102 5.95825 7.04102C7.70825 5.29102 9.88881 4.41602 12.4999 4.41602C13.9444 4.41602 15.3194 4.72157 16.6249 5.33268C17.9305 5.94379 19.0555 6.8049 19.9999 7.91602C20.9444 6.8049 22.0694 5.94379 23.3749 5.33268C24.6805 4.72157 26.0555 4.41602 27.4999 4.41602C30.111 4.41602 32.2916 5.29102 34.0416 7.04102C35.7916 8.79102 36.6666 10.9716 36.6666 13.5827C36.6666 14.8605 36.4513 16.1105 36.0208 17.3327C35.5902 18.5549 34.8333 19.8952 33.7499 21.3535C32.6666 22.8118 31.2083 24.4577 29.3749 26.291C27.5416 28.1243 25.2221 30.3049 22.4166 32.8327L19.9999 34.9993ZM19.9999 30.4993C22.6666 28.1105 24.861 26.0618 26.5833 24.3535C28.3055 22.6452 29.6666 21.1591 30.6666 19.8952C31.6666 18.6313 32.361 17.5063 32.7499 16.5202C33.1388 15.5341 33.3333 14.5549 33.3333 13.5827C33.3333 11.916 32.7777 10.5271 31.6666 9.41602C30.5555 8.3049 29.1666 7.74935 27.4999 7.74935C26.1944 7.74935 24.986 8.1174 23.8749 8.85352C22.7638 9.58963 21.9999 10.5271 21.5833 11.666H18.4166C17.9999 10.5271 17.236 9.58963 16.1249 8.85352C15.0138 8.1174 13.8055 7.74935 12.4999 7.74935C10.8333 7.74935 9.44436 8.3049 8.33325 9.41602C7.22214 10.5271 6.66659 11.916 6.66659 13.5827C6.66659 14.5549 6.86103 15.5341 7.24992 16.5202C7.63881 17.5063 8.33325 18.6313 9.33325 19.8952C10.3333 21.1591 11.6944 22.6452 13.4166 24.3535C15.1388 26.0618 17.3333 28.1105 19.9999 30.4993Z" fill="#838383"/>
</g>
</svg>
