<svg width="26" height="26" viewBox="0 0 26 26" fill="none" xmlns="http://www.w3.org/2000/svg">
<mask id="mask0_1003_422" style="mask-type:alpha" maskUnits="userSpaceOnUse" x="0" y="0" width="26" height="26">
<rect width="26" height="26" fill="#D9D9D9"/>
</mask>
<g mask="url(#mask0_1003_422)">
<path d="M21.5381 23.1109L14.4603 16.0331C13.8985 16.4825 13.2526 16.8383 12.5223 17.1004C11.7921 17.3625 11.015 17.4936 10.1911 17.4936C8.15019 17.4936 6.42288 16.7868 5.0092 15.3731C3.59551 13.9594 2.88867 12.2321 2.88867 10.1911C2.88867 8.15019 3.59551 6.42288 5.0092 5.0092C6.42288 3.59551 8.15019 2.88867 10.1911 2.88867C12.2321 2.88867 13.9594 3.59551 15.3731 5.0092C16.7868 6.42288 17.4936 8.15019 17.4936 10.1911C17.4936 11.015 17.3625 11.7921 17.1004 12.5223C16.8383 13.2526 16.4825 13.8985 16.0331 14.4603L23.1109 21.5381L21.5381 23.1109ZM10.1911 15.2467C11.5955 15.2467 12.7891 14.7552 13.7722 13.7722C14.7552 12.7891 15.2467 11.5955 15.2467 10.1911C15.2467 8.78682 14.7552 7.59315 13.7722 6.61012C12.7891 5.6271 11.5955 5.13559 10.1911 5.13559C8.78682 5.13559 7.59315 5.6271 6.61012 6.61012C5.6271 7.59315 5.13559 8.78682 5.13559 10.1911C5.13559 11.5955 5.6271 12.7891 6.61012 13.7722C7.59315 14.7552 8.78682 15.2467 10.1911 15.2467Z" fill="#838383"/>
</g>
</svg>
