<svg width="36" height="36" viewBox="0 0 36 36" fill="none" xmlns="http://www.w3.org/2000/svg">
<circle cx="18" cy="18" r="18" fill="#0276FE"/>
<mask id="mask0_1775_481" style="mask-type:alpha" maskUnits="userSpaceOnUse" x="10" y="10" width="16" height="16">
<rect x="10" y="10" width="16" height="16" fill="#D9D9D9"/>
</mask>
<g mask="url(#mask0_1775_481)">
<path d="M13.3333 22.6669H14.2833L20.8 16.1502L19.85 15.2002L13.3333 21.7169V22.6669ZM12 24.0002V21.1669L20.8 12.3836C20.9333 12.2614 21.0806 12.1669 21.2417 12.1002C21.4028 12.0336 21.5722 12.0002 21.75 12.0002C21.9278 12.0002 22.1 12.0336 22.2667 12.1002C22.4333 12.1669 22.5778 12.2669 22.7 12.4002L23.6167 13.3336C23.75 13.4558 23.8472 13.6002 23.9083 13.7669C23.9694 13.9336 24 14.1002 24 14.2669C24 14.4447 23.9694 14.6141 23.9083 14.7752C23.8472 14.9364 23.75 15.0836 23.6167 15.2169L14.8333 24.0002H12ZM20.3167 15.6836L19.85 15.2002L20.8 16.1502L20.3167 15.6836Z" fill="white"/>
</g>
</svg>
